<?xml version="1.0" encoding="utf-8"?>
<!-- Generator: Adobe Illustrator 26.3.1, SVG Export Plug-In . SVG Version: 6.00 Build 0)  -->
<svg version="1.1" id="Calque_1" xmlns="http://www.w3.org/2000/svg" xmlns:xlink="http://www.w3.org/1999/xlink" x="0px" y="0px"
	 viewBox="0 0 752.7 224.1" style="enable-background:new 0 0 752.7 224.1;" xml:space="preserve">
<style type="text/css">
	.st0{opacity:0.1;fill:none;stroke:#303030;stroke-width:0.5;stroke-miterlimit:10;}
	.st1{fill:#0B0B76;}
</style>
<circle class="st0" cx="3773.7" cy="-55.2" r="99.9"/>
<circle class="st0" cx="3956.5" cy="-55.2" r="99.9"/>
<circle class="st0" cx="3773.8" cy="-213.1" r="99.9"/>
<circle class="st0" cx="3951.7" cy="-213.1" r="99.9"/>
<g>
	<g>
		<path class="st1" d="M308.8,184c-9.2,0-17.5-2.2-24.8-6.5c-7.3-4.3-13.1-10.2-17.4-17.6s-6.4-15.8-6.6-25.2V53.8
			c0-2.7,0.9-4.9,2.6-6.6c1.7-1.7,3.9-2.5,6.5-2.5c2.7,0,4.9,0.8,6.6,2.5c1.7,1.7,2.5,3.8,2.5,6.6v47.9c4.1-5,9.1-8.9,15-11.8
			c5.9-2.9,12.3-4.3,19.2-4.3c8.6,0,16.4,2.2,23.2,6.5c6.9,4.3,12.3,10.2,16.2,17.6c4,7.4,5.9,15.8,5.9,25.1
			c0,9.3-2.2,17.7-6.5,25.2c-4.3,7.4-10.1,13.3-17.5,17.6C326.5,181.8,318.2,184,308.8,184z M308.8,168c6,0,11.4-1.4,16.1-4.3
			c4.7-2.9,8.5-6.9,11.3-12c2.8-5.1,4.2-10.8,4.2-17c0-6.4-1.4-12.1-4.2-17c-2.8-5-6.5-8.9-11.3-11.8c-4.7-2.9-10.1-4.3-16.1-4.3
			c-5.9,0-11.3,1.4-16,4.3c-4.8,2.9-8.5,6.8-11.3,11.8c-2.7,5-4.1,10.6-4.1,17c0,6.3,1.4,11.9,4.1,17c2.7,5.1,6.5,9.1,11.3,12
			C297.6,166.6,302.9,168,308.8,168z"/>
		<path class="st1" d="M395.5,70.5c-3.2,0-5.9-1.2-8.2-3.5c-2.3-2.3-3.5-5.1-3.5-8.2s1.2-5.9,3.5-8.2c2.3-2.3,5.1-3.5,8.2-3.5
			s5.9,1.2,8.2,3.5c2.3,2.3,3.5,5.1,3.5,8.2s-1.2,5.9-3.5,8.2C401.5,69.4,398.7,70.5,395.5,70.5z M395.5,183.3
			c-2.6,0-4.8-0.9-6.5-2.6c-1.7-1.7-2.6-3.9-2.6-6.5V95.3c0-2.7,0.9-4.9,2.6-6.6c1.7-1.7,3.9-2.5,6.5-2.5c2.7,0,4.9,0.8,6.6,2.5
			c1.7,1.7,2.5,3.8,2.5,6.6v78.9c0,2.6-0.8,4.8-2.5,6.5C400.4,182.4,398.3,183.3,395.5,183.3z"/>
		<path class="st1" d="M440.4,103c-5.6,0-8.3-2.8-8.3-8.3c0-5.6,2.8-8.3,8.3-8.3h60.5c5.6,0,8.3,2.8,8.3,8.3c0,5.6-2.8,8.3-8.3,8.3
			H440.4z M442.2,183.3c-5.6,0-8.3-2.8-8.3-8.3c0-5.6,2.8-8.3,8.3-8.3h60.5c5.6,0,8.3,2.8,8.3,8.3c0,5.6-2.8,8.3-8.3,8.3H442.2z
			 M447.5,179.9l-12.1-10.6l60.3-79.6l11.9,10.6L447.5,179.9z"/>
		<path class="st1" d="M570.9,184c-8.6,0-16.4-2.2-23.2-6.5c-6.9-4.3-12.3-10.2-16.2-17.6c-4-7.4-5.9-15.8-5.9-25.1
			c0-9.3,2.2-17.7,6.5-25.2c4.3-7.4,10.2-13.3,17.6-17.6c7.4-4.3,15.7-6.5,24.9-6.5c9.2,0,17.5,2.2,24.8,6.5
			c7.3,4.3,13.1,10.2,17.5,17.6c4.3,7.4,6.5,15.8,6.5,25.2h-6.9c0,9.3-2,17.7-5.9,25.1c-4,7.4-9.4,13.2-16.2,17.6
			C587.3,181.8,579.5,184,570.9,184z M574.4,168c6,0,11.4-1.4,16.1-4.3c4.7-2.9,8.5-6.9,11.2-11.9c2.7-5,4.1-10.7,4.1-16.9
			c0-6.4-1.4-12.1-4.1-17.1c-2.7-5-6.4-9-11.2-11.9c-4.7-2.9-10.1-4.3-16.1-4.3c-5.9,0-11.3,1.4-16,4.3c-4.8,2.9-8.6,6.9-11.3,11.9
			c-2.8,5-4.2,10.7-4.2,17.1c0,6.3,1.4,11.9,4.2,16.9c2.8,5,6.6,9,11.3,11.9C563.2,166.6,568.5,168,574.4,168z M614.2,183.5
			c-2.6,0-4.8-0.9-6.5-2.6c-1.7-1.7-2.6-3.9-2.6-6.5v-27.1l3.4-18.8l14.7,6.4v39.5c0,2.6-0.9,4.8-2.6,6.5
			C618.9,182.6,616.8,183.5,614.2,183.5z"/>
		<path class="st1" d="M694.1,184c-9.6,0-18-2.1-25.4-6.3c-7.3-4.2-13.1-10-17.3-17.4c-4.2-7.4-6.3-15.9-6.3-25.4
			c0-9.7,2.1-18.2,6.3-25.6c4.2-7.4,10-13.2,17.3-17.4c7.3-4.2,15.8-6.3,25.4-6.3c9.5,0,17.8,2.1,25.2,6.3
			c7.3,4.2,13.1,10,17.3,17.4c4.2,7.4,6.3,15.9,6.3,25.6c0,9.6-2.1,18.1-6.2,25.4c-4.1,7.4-9.9,13.2-17.2,17.4
			C712.1,181.9,703.7,184,694.1,184z M694.1,168c6.1,0,11.6-1.4,16.3-4.3c4.7-2.8,8.4-6.7,11.1-11.7c2.7-5,4-10.7,4-17.2
			c0-6.5-1.3-12.3-4-17.3c-2.7-5-6.4-9-11.1-11.8c-4.7-2.8-10.2-4.3-16.3-4.3c-6.1,0-11.6,1.4-16.3,4.3c-4.7,2.8-8.5,6.8-11.2,11.8
			c-2.7,5-4.1,10.8-4.1,17.3c0,6.5,1.4,12.2,4.1,17.2c2.7,5,6.4,8.9,11.2,11.7C682.5,166.6,688,168,694.1,168z"/>
	</g>
</g>
<g>
	<g>
		<g>
			<path class="st1" d="M51.1,24.2c0.3,0,0.5,0,0.8,0C51.6,24.2,51.3,24.2,51.1,24.2z"/>
			<path class="st1" d="M226,108.9c-1.5-1.4-3.2-2.1-5.2-2.1c-8.8,0-13.1-4.3-13.1-12.9V52.3c0-18-8.6-27.4-25.8-28.1
				c-0.1,0-0.1,0-0.2,0c-0.5,0-1,0-1.5,0c-0.2,0-0.4,0-0.5,0c-60-1.4-117.1-0.2-127.4,0c-0.1,0-0.2,0-0.3,0c-0.3,0-0.6,0-0.8,0h0
				c-0.2,0-0.3,0-0.5,0C33.5,25,25,34.3,25,52.3v41.5c0,8.6-4.4,12.9-13.1,12.9c-2,0-3.8,0.7-5.2,2.1s-2.2,3.2-2.2,5.5
				c0,2.1,0.7,3.9,2.2,5.3s3.2,2.1,5.2,2.1c8.7,0,13.1,4.3,13.1,13v41.5c0,18,8.6,27.3,25.9,28c0.1,0,0.2,0,0.4,0h0.1
				c66.9,1.6,129.9,0,129.9,0v0c17.6-0.5,26.4-9.9,26.4-28v-41.5c0-8.6,4.4-13,13.1-13c2,0,3.8-0.7,5.2-2.1c1.5-1.4,2.2-3.2,2.2-5.3
				C228.2,112.1,227.5,110.3,226,108.9z M192.7,134.8v41.5c0,8.1-3.9,12.4-11.6,12.9c-35.8,0.8-124,0-129.7,0h0
				c-7.7-0.5-11.5-4.8-11.5-12.9v-41.5c0-8.6-2.2-15.4-6.6-20.4c2.2-2.6,3.9-5.6,5-9c1.1-3.4,1.6-7.2,1.6-11.6V52.3
				c0-7.8,3.6-12.1,10.7-12.8c37-0.8,131.4,0,131.4,0v0c7.2,0.7,10.8,5,10.8,12.8v41.5c0,4.4,0.5,8.2,1.6,11.6c1.1,3.4,2.7,6.4,5,9
				C194.9,119.4,192.7,126.2,192.7,134.8z"/>
		</g>
		<path class="st1" d="M50.6,24.2c0,0,0.2,0,0.5,0C50.9,24.2,50.7,24.2,50.6,24.2L50.6,24.2z"/>
		<path class="st1" d="M181.9,24.2L181.9,24.2c-0.1,0-0.1,0-0.2,0C181.7,24.2,181.8,24.2,181.9,24.2z"/>
		<path class="st1" d="M51.3,204.2c-0.1,0-0.2,0-0.4,0v0C51,204.2,51.1,204.2,51.3,204.2z"/>
	</g>
	<circle class="st1" cx="150.4" cy="115.2" r="12.3"/>
	<circle class="st1" cx="82.5" cy="115" r="12.3"/>
</g>
</svg>
